<svg width="93" height="93" viewBox="0 0 93 93" fill="none" xmlns="http://www.w3.org/2000/svg">
<g filter="url(#filter0_d_53_8)">
<path d="M77.3063 81.375C69.2333 81.375 61.2573 79.6151 53.3781 76.0953C45.499 72.5755 38.3302 67.5865 31.8719 61.1281C25.4135 54.6698 20.4245 47.501 16.9047 39.6219C13.3849 31.7427 11.625 23.7667 11.625 15.6937C11.625 14.5312 12.0125 13.5625 12.7875 12.7875C13.5625 12.0125 14.5312 11.625 15.6937 11.625H31.3875C32.2917 11.625 33.099 11.9318 33.8094 12.5453C34.5198 13.1589 34.9396 13.8854 35.0687 14.725L37.5875 28.2875C37.7167 29.3208 37.6844 30.1927 37.4906 30.9031C37.2969 31.6135 36.9417 32.2271 36.425 32.7437L27.0281 42.2375C28.3198 44.6271 29.8536 46.9359 31.6297 49.1641C33.4057 51.3922 35.3594 53.5396 37.4906 55.6062C39.4927 57.6083 41.5917 59.4651 43.7875 61.1766C45.9833 62.888 48.3083 64.4542 50.7625 65.875L59.8687 56.7687C60.45 56.1875 61.2089 55.7516 62.1453 55.4609C63.0818 55.1703 64.0021 55.0896 64.9062 55.2188L78.275 57.9312C79.1792 58.1896 79.9219 58.6578 80.5031 59.3359C81.0844 60.0141 81.375 60.7729 81.375 61.6125V77.3063C81.375 78.4688 80.9875 79.4375 80.2125 80.2125C79.4375 80.9875 78.4688 81.375 77.3063 81.375ZM23.3469 34.875L29.7406 28.4812L28.0938 19.375H19.4719C19.7948 22.0229 20.2469 24.6385 20.8281 27.2219C21.4094 29.8052 22.249 32.3562 23.3469 34.875ZM58.0281 69.5562C60.5469 70.6542 63.1141 71.526 65.7297 72.1719C68.3453 72.8177 70.9771 73.2375 73.625 73.4312V64.9062L64.5187 63.0656L58.0281 69.5562Z" fill="#FDD33A" fill-opacity="0.9" shape-rendering="crispEdges"/>
</g>
<defs>
<filter id="filter0_d_53_8" x="7.625" y="11.625" width="77.75" height="77.75" filterUnits="userSpaceOnUse" color-interpolation-filters="sRGB">
<feFlood flood-opacity="0" result="BackgroundImageFix"/>
<feColorMatrix in="SourceAlpha" type="matrix" values="0 0 0 0 0 0 0 0 0 0 0 0 0 0 0 0 0 0 127 0" result="hardAlpha"/>
<feOffset dy="4"/>
<feGaussianBlur stdDeviation="2"/>
<feComposite in2="hardAlpha" operator="out"/>
<feColorMatrix type="matrix" values="0 0 0 0 0 0 0 0 0 0 0 0 0 0 0 0 0 0 0.25 0"/>
<feBlend mode="normal" in2="BackgroundImageFix" result="effect1_dropShadow_53_8"/>
<feBlend mode="normal" in="SourceGraphic" in2="effect1_dropShadow_53_8" result="shape"/>
</filter>
</defs>
</svg>
