<svg width="32" height="32" viewBox="0 0 32 32" fill="none" xmlns="http://www.w3.org/2000/svg">
<path d="M31.8997 9.8692C31.927 7.26212 30.9395 4.74657 29.1459 2.85432C27.2561 1.0631 24.7445 0.075784 22.1408 0.10056C20.5327 0.01008 18.92 0 17.5377 0H14.4623C13.0805 0 11.4675 0.01008 9.86954 0.10056C7.26099 0.073599 4.74396 1.06095 2.84947 2.85432C1.06086 4.74534 0.0754879 7.25642 0.100675 9.8592C-0.00484502 11.6785 3.49793e-05 13.4975 3.49793e-05 15.2512L0.00523497 16L3.49793e-05 16.7488C3.49793e-05 18.5077 -0.00484502 20.3266 0.100675 22.1308C0.0742413 24.7383 1.05952 27.2545 2.84947 29.1508C4.74282 30.939 7.25534 31.9242 9.85954 31.8994C11.4675 31.9954 13.0805 32 14.4623 32L16 31.9951L17.5377 32C18.9199 32 20.5327 31.9951 22.1307 31.8994C24.7368 31.9259 27.2515 30.9406 29.1459 29.1508C30.9371 27.259 31.9243 24.7459 31.8997 22.1408C32 20.3266 32 18.5077 32 16.7488V15.2512C32 13.4975 32 11.6785 31.8997 9.8692ZM29.4022 16V16.7486C29.4022 18.5526 29.4022 20.2511 29.3067 22.0046C29.1861 24.447 28.593 26.0347 27.3117 27.3111C26.0302 28.5927 24.4423 29.1906 21.9951 29.3062C20.5561 29.3906 19.1022 29.4 17.8191 29.401V20.8744H21.397L21.9447 16.7036H17.8191V14.0453C17.8191 12.8442 18.1407 12.0102 19.8743 12.0102H22.0855V8.29648C21.0196 8.17472 19.9474 8.11766 18.8746 8.1256C15.6886 8.1256 13.5027 10.0705 13.5027 13.6331V16.704H9.91483V20.8744H13.5027V29.4C12.3958 29.395 11.1923 29.376 9.99506 29.3066C7.55779 29.191 5.96499 28.5931 4.68307 27.3115C3.40699 26.0351 2.80875 24.4475 2.69323 21.995C2.59267 20.251 2.59779 18.5528 2.59779 16.7489V15.2512C2.59779 13.4473 2.59267 11.7487 2.69323 9.9952C2.80875 7.55312 3.40699 5.97 4.68307 4.68872C5.96467 3.40712 7.55747 2.8144 10.0048 2.69368C11.5475 2.60824 13.1154 2.59824 14.462 2.59824H17.5374C18.8843 2.59824 20.4522 2.60824 22.0049 2.69368C24.4419 2.8144 26.0298 3.40712 27.3114 4.68872C28.5929 5.97032 29.1858 7.55312 29.3064 10.0053C29.4018 11.7493 29.4018 13.4474 29.4018 15.2514L29.4022 16Z" fill="#FDD33A"/>
</svg>
