<svg width="32" height="31" viewBox="0 0 32 31" fill="none" xmlns="http://www.w3.org/2000/svg">
<path d="M16.005 7C14.4226 6.99901 12.8753 7.46736 11.5591 8.3458C10.2428 9.22425 9.21669 10.4733 8.61041 11.935C8.00414 13.3968 7.845 15.0054 8.1531 16.5576C8.46121 18.1098 9.22274 19.5357 10.3413 20.6551C11.46 21.7744 12.8854 22.5368 14.4374 22.8459C15.9894 23.155 17.5981 22.9969 19.0603 22.3915C20.5224 21.7862 21.7721 20.7608 22.6514 19.4451C23.5306 18.1294 24 16.5825 24 15.0001C24.0012 13.9496 23.7953 12.9092 23.394 11.9383C22.9927 10.9675 22.4039 10.0853 21.6613 9.34228C20.9187 8.59923 20.0369 8.00989 19.0664 7.60798C18.0958 7.20606 17.0555 6.99947 16.005 7ZM16.005 20.1955C14.9774 20.1955 13.9729 19.8908 13.1185 19.3199C12.2641 18.749 11.5982 17.9376 11.205 16.9882C10.8117 16.0389 10.7088 14.9942 10.9093 13.9864C11.1098 12.9785 11.6046 12.0528 12.3312 11.3262C13.0579 10.5996 13.9836 10.1048 14.9915 9.90429C15.9993 9.70383 17.044 9.80673 17.9933 10.2C18.9427 10.5932 19.7541 11.2592 20.325 12.1136C20.8959 12.968 21.2006 13.9725 21.2005 15.0001C21.1974 16.377 20.6489 17.6967 19.6753 18.6703C18.7016 19.644 17.382 20.1924 16.005 20.1955Z" fill="#FDD33A"/>
<path d="M31.903 9.55754C31.9295 7.03161 30.942 4.5945 29.149 2.76051C27.2588 1.02523 24.747 0.0686534 22.1431 0.0923943C20.5349 0.00488326 18.9218 0 17.5394 0H14.4639C13.0769 0 11.4688 0.00488326 9.87059 0.0923943C7.26196 0.067337 4.74507 1.02383 2.84978 2.76051C1.05962 4.59201 0.0738928 7.02564 0.100612 9.54785C-0.00499856 11.3102 4.19593e-05 13.073 4.19593e-05 14.7771V16.2229C4.19593e-05 17.927 -0.00499856 19.6898 0.0954119 21.4374C0.0703458 23.9646 1.05766 26.4027 2.84978 28.2392C4.74247 29.9731 7.25575 30.9279 9.86051 30.9026C11.4687 30.9904 13.0768 31 14.4639 31H17.5394C18.9218 31 20.5349 30.9904 22.133 30.9026C24.7398 30.9304 27.2556 29.9753 29.149 28.2392C30.9412 26.4067 31.9286 23.9714 31.903 21.4471C32.0034 19.6898 32.0034 17.927 31.9983 16.2228V14.7771C32.0034 13.073 32.0034 11.3102 31.903 9.55754ZM29.4053 15.5027V16.2236C29.4053 17.9669 29.4101 19.6222 29.3098 21.3161C29.189 23.6824 28.5911 25.2209 27.3146 26.4576C26.0331 27.6988 24.4448 28.2783 21.9926 28.3902C20.4498 28.4778 18.8869 28.4878 17.5397 28.4878L16.002 28.4828L14.4642 28.4878C13.1173 28.4878 11.5493 28.4778 9.99636 28.3902C7.55395 28.2783 5.96586 27.6988 4.68933 26.4573C3.40792 25.2206 2.81473 23.6824 2.68912 21.3061C2.59311 19.6215 2.59847 17.9662 2.59847 16.2229V14.7721C2.59847 13.024 2.59327 11.3785 2.68912 9.67916C2.81457 7.31303 3.40776 5.77434 4.68933 4.53763C5.96586 3.29628 7.55363 2.72168 10.0064 2.60471C11.5493 2.5172 13.1173 2.51224 14.4642 2.51224L16.002 2.5172L17.5397 2.51224C18.8869 2.51224 20.4498 2.5172 22.0078 2.60471C24.4451 2.72168 26.0332 3.29628 27.315 4.53763C28.5914 5.77434 29.1893 7.31303 29.3101 9.68885C29.4105 11.3786 29.4056 13.024 29.4056 14.7721L29.4053 15.5027Z" fill="#FDD33A"/>
</svg>
