<svg width="42" height="31" viewBox="0 0 42 31" fill="none" xmlns="http://www.w3.org/2000/svg">
<path d="M0.0234955 9.7238C0.193895 7.95483 0.468308 6.19698 0.845363 4.45903C1.09594 3.27724 1.76414 2.22023 2.73204 1.47454C3.69994 0.72886 4.90532 0.342434 6.13547 0.383461C9.24544 0.224832 12.3588 -0.0224829 15.4687 0.00164109C22.3845 0.0555586 29.2994 0.196079 36.2134 0.423204C37.3199 0.414539 38.3978 0.767829 39.2765 1.42721C40.1553 2.08659 40.7849 3.01443 41.0657 4.06402C41.4827 5.23581 41.7359 6.45756 41.8186 7.69599C41.9576 12.1494 42.016 16.605 41.9939 21.0628C42.0497 23.095 41.7201 25.1197 41.022 27.0339C40.7131 27.9228 40.1568 28.7092 39.4159 29.3042C38.675 29.8992 37.7792 30.2791 36.8297 30.4009C35.9312 30.5355 35.0263 30.6245 34.1184 30.6676C26.4599 31.0734 18.7976 31.0928 11.1353 30.8065C9.21057 30.7346 7.28315 30.5902 5.37165 30.3601C4.35567 30.2974 3.38489 29.9257 2.59441 29.2966C1.80393 28.6676 1.23307 27.8125 0.96128 26.8505C0.543875 25.5018 0.281271 24.1116 0.178347 22.7058C0.063137 21.2993 -0.0503027 10.2278 0.0234955 9.7238ZM13.751 25.6316L31.0359 15.4603L13.751 5.29001V25.6316Z" fill="white"/>
</svg>
